HIERARCHY
ROOT root
{
	OFFSET	0.000000	0.000000	0.000000
	CHANNELS 6 Xposition Yposition Zposition Zrotation Yrotation Xrotation
	JOINT lhipjoint
	{
		OFFSET	0.000000	0.000000	0.000000
		CHANNELS 3 Zrotation Yrotation Xrotation
		JOINT lfemur
		{
			OFFSET	1.175839	-1.635849	1.003610
			CHANNELS 3 Zrotation Yrotation Xrotation
			JOINT ltibia
			{
				OFFSET	2.238893	-6.151313	0.000000
				CHANNELS 3 Zrotation Yrotation Xrotation
				JOINT lfoot
				{
					OFFSET	2.651612	-7.285250	0.000000
					CHANNELS 3 Zrotation Yrotation Xrotation
					JOINT ltoes
					{
						OFFSET	0.248981	-0.684068	1.572347
						CHANNELS 3 Zrotation Yrotation Xrotation
						End Site
						{
							OFFSET	0.000000	-0.000000	0.858383
						}
					}
				}
			}
		}
	}
	JOINT rhipjoint
	{
		OFFSET	0.000000	0.000000	0.000000
		CHANNELS 3 Zrotation Yrotation Xrotation
		JOINT rfemur
		{
			OFFSET	-1.155919	-1.635851	1.003612
			CHANNELS 3 Zrotation Yrotation Xrotation
			JOINT rtibia
			{
				OFFSET	-2.340706	-6.431041	0.000000
				CHANNELS 3 Zrotation Yrotation Xrotation
				JOINT rfoot
				{
					OFFSET	-2.591129	-7.119075	0.000000
					CHANNELS 3 Zrotation Yrotation Xrotation
					JOINT rtoes
					{
						OFFSET	-0.178671	-0.490894	1.709806
						CHANNELS 3 Zrotation Yrotation Xrotation
						End Site
						{
							OFFSET	-0.000000	-0.000000	0.898614
						}
					}
				}
			}
		}
	}
	JOINT lowerback
	{
		OFFSET	0.000000	0.000000	0.000000
		CHANNELS 3 Zrotation Yrotation Xrotation
		JOINT upperback
		{
			OFFSET	-0.022549	1.907644	-0.166052
			CHANNELS 3 Zrotation Yrotation Xrotation
			JOINT thorax
			{
				OFFSET	-0.003648	1.921502	-0.048982
				CHANNELS 3 Zrotation Yrotation Xrotation
				JOINT lowerneck
				{
					OFFSET	0.006489	1.931145	0.029434
					CHANNELS 3 Zrotation Yrotation Xrotation
					JOINT upperneck
					{
						OFFSET	0.003717	1.591703	0.086942
						CHANNELS 3 Zrotation Yrotation Xrotation
						JOINT head
						{
							OFFSET	0.125579	1.586429	-0.080777
							CHANNELS 3 Zrotation Yrotation Xrotation
							End Site
							{
								OFFSET	0.042114	1.608349	-0.038029
							}
						}
					}
				}
				JOINT lclavicle
				{
					OFFSET	0.006489	1.931145	0.029434
					CHANNELS 3 Zrotation Yrotation Xrotation
					JOINT lhumerus
					{
						OFFSET	3.693240	0.963159	0.190769
						CHANNELS 3 Zrotation Yrotation Xrotation
						JOINT lradius
						{
							OFFSET	4.877960	-0.000000	-0.000000
							CHANNELS 3 Zrotation Yrotation Xrotation
							JOINT lwrist
							{
								OFFSET	3.231690	-0.000000	0.000000
								CHANNELS 3 Zrotation Yrotation Xrotation
								JOINT lhand
								{
									OFFSET	1.615840	-0.000000	0.000000
									CHANNELS 3 Zrotation Yrotation Xrotation
									JOINT lfingers
									{
										OFFSET	0.731324	-0.000000	0.000000
										CHANNELS 3 Zrotation Yrotation Xrotation
										End Site
										{
											OFFSET	0.589612	-0.000000	0.000000
										}
									}
								}
								JOINT lthumb
								{
									OFFSET	1.615840	-0.000000	0.000000
									CHANNELS 3 Zrotation Yrotation Xrotation
									End Site
									{
										OFFSET	0.598615	-0.000000	0.598615
									}
								}
							}
						}
					}
				}
				JOINT rclavicle
				{
					OFFSET	0.006489	1.931145	0.029434
					CHANNELS 3 Zrotation Yrotation Xrotation
					JOINT rhumerus
					{
						OFFSET	-3.661028	0.751452	0.082811
						CHANNELS 3 Zrotation Yrotation Xrotation
						JOINT rradius
						{
							OFFSET	-4.914300	-0.000000	0.000000
							CHANNELS 3 Zrotation Yrotation Xrotation
							JOINT rwrist
							{
								OFFSET	-3.290930	-0.000000	0.000000
								CHANNELS 3 Zrotation Yrotation Xrotation
								JOINT rhand
								{
									OFFSET	-1.645460	-0.000000	0.000000
									CHANNELS 3 Zrotation Yrotation Xrotation
									JOINT rfingers
									{
										OFFSET	-0.545120	-0.000000	0.000000
										CHANNELS 3 Zrotation Yrotation Xrotation
										End Site
										{
											OFFSET	-0.439490	-0.000000	0.000000
										}
									}
								}
								JOINT rthumb
								{
									OFFSET	-1.645460	-0.000000	0.000000
									CHANNELS 3 Zrotation Yrotation Xrotation
									End Site
									{
										OFFSET	-0.446200	-0.000000	0.446200
									}
								}
							}
						}
					}
				}
			}
		}
	}
}
MOTION
Frames:	11
Frame Time:	0.008333
	10.512400	13.958100	-5.417910	-90.521141	-86.533104	114.267174	0.000000	0.000000	0.000000	-11.692154	6.566730	-99.268776	7.684584	15.882290	51.418465	0.167823	10.156090	9.605157	2.534975	-9.901221	-28.657446	0.000000	0.000000	0.000000	-7.443965	-33.209827	-26.568371	-11.733532	-18.275724	65.141663	0.583645	14.378800	-0.303226	-0.946653	6.196526	-17.355701	9.147871	3.988990	5.151451	0.439440	4.899560	9.345011	-4.524020	2.890330	7.827120	1.198740	5.763710	-2.724250	-12.652500	5.372620	-20.590900	-4.366510	3.112090	-5.298340	1.198740	0.000000	0.000000	-25.297867	53.307892	47.219463	11.347360	-18.818727	-1.886450	0.000000	0.000000	-46.301605	33.383259	-0.108581	-0.071552	-7.125019	0.000000	0.000000	5.362715	29.828611	-1.992627	1.198740	0.000000	0.000000	70.453300	-66.695671	77.222527	-23.129417	34.230022	-7.210961	0.000000	0.000000	0.135139	-22.066961	-24.986237	9.716826	7.125019	0.000000	0.000000	8.242592	-56.485424	-2.332136
	10.177100	13.844500	-5.401390	-61.779972	-84.725227	84.055954	0.000000	0.000000	0.000000	-14.654731	6.078917	-99.927841	7.658502	15.862242	51.323090	0.213186	10.771178	10.495062	2.399337	-9.652534	-27.858700	0.000000	0.000000	0.000000	-8.298163	-32.654903	-20.044912	-11.454281	-18.150307	64.248230	0.455711	12.944118	-0.775177	-0.970382	6.271500	-17.574223	8.899481	4.349970	5.012260	0.652239	5.406991	9.020309	-4.144280	3.106319	7.566020	0.980732	5.339131	-2.884031	-12.282001	4.813021	-20.751402	-4.202000	2.832070	-5.384210	0.980732	-0.000000	0.000000	-25.996698	54.293480	45.516758	11.169461	-18.547523	-1.829460	0.000001	-0.000002	-45.446087	33.228111	-0.326512	-0.213897	-7.125019	0.000000	0.000000	5.226966	29.570311	-1.974094	0.980732	-0.000000	0.000000	73.184875	-66.196114	73.258720	-21.740654	32.682690	-6.445238	-0.000000	0.000002	-0.365622	-21.346113	-25.696383	9.617785	7.125019	0.000000	0.000000	9.330771	-57.058121	-2.773090
	9.839160	13.720700	-5.391010	-49.613014	-82.327110	70.277016	0.000000	0.000000	0.000000	-17.234577	5.749517	-100.030510	7.791221	15.963529	51.807148	0.278647	10.689918	11.252316	1.956798	-8.775499	-25.095551	0.000000	0.000000	0.000000	-8.749504	-31.685360	-13.393414	-11.104368	-17.985783	63.120045	0.328648	11.476987	-1.611236	-0.992059	6.339118	-17.771589	8.484890	4.651481	4.913401	0.868864	5.842400	8.650211	-3.683190	3.273760	7.192400	0.598682	4.895229	-3.052680	-11.743800	4.254860	-20.884003	-3.953959	2.554320	-5.467870	0.598682	0.000000	-0.000000	-26.945278	55.238342	43.155731	10.918075	-18.162561	-1.750296	-0.000001	0.000002	-44.283688	33.025803	-0.533076	-0.346518	-7.125019	0.000000	0.000000	5.055581	29.327030	-1.938275	0.598682	0.000000	-0.000000	75.643173	-65.462463	69.340271	-20.323238	31.029806	-5.697035	0.000000	-0.000002	-0.731171	-20.853958	-26.427616	9.622692	7.125019	0.000000	0.000000	10.212688	-57.693558	-3.195771
	9.498580	13.590400	-5.386510	-43.786983	-79.803986	62.745022	0.000000	0.000000	0.000000	-19.198277	5.608948	-99.588326	8.077462	16.175932	52.841209	0.360002	9.192810	11.646749	1.529328	-7.807909	-22.132147	0.000000	0.000000	0.000000	-8.636756	-30.338427	-6.840796	-10.704573	-17.787460	61.818405	0.199008	9.880262	-2.745126	-0.976811	6.291646	-17.633001	7.964111	4.922600	4.803720	1.020310	6.244630	8.223171	-3.241850	3.422770	6.746260	0.190190	4.410970	-3.174050	-11.033502	3.671861	-21.032000	-3.645990	2.258700	-5.566210	0.190190	-0.000000	0.000000	-27.870728	56.076305	40.509510	10.631745	-17.721617	-1.662093	-0.000001	0.000002	-43.112705	32.809669	-0.715410	-0.461202	-7.125019	0.000000	0.000000	4.875509	29.113558	-1.893588	0.190190	-0.000000	0.000000	77.983231	-64.519890	65.451927	-18.913477	29.311020	-4.988421	0.000000	0.000000	-0.862244	-20.569729	-27.050465	9.685054	7.125019	0.000000	0.000000	10.840584	-58.258816	-3.543131
	9.155190	13.459600	-5.386010	-40.648987	-77.297050	57.869003	0.000000	0.000000	0.000000	-20.426662	5.633007	-98.673286	8.504530	16.478090	54.360287	0.380018	6.284384	11.162689	1.047116	-6.507338	-18.263762	0.000000	0.000000	0.000000	-7.849816	-28.712515	-0.588582	-10.280402	-17.564543	60.421494	0.066543	8.026081	-4.104645	-0.884193	5.994169	-16.767506	7.254499	5.126099	4.577860	1.183030	6.543441	7.803400	-2.684350	3.514510	6.330810	-0.374711	3.926090	-3.446310	-10.189701	3.113220	-21.157501	-3.263930	1.972740	-5.631320	-0.374711	-0.000000	0.000000	-29.211872	56.828915	37.254131	10.300732	-17.208603	-1.562745	0.000001	-0.000002	-41.984997	32.620941	-0.819151	-0.524260	-7.125019	0.000000	0.000000	4.722083	28.993439	-1.847141	-0.374711	-0.000000	0.000000	79.680840	-63.273376	62.004780	-17.549208	27.576096	-4.338532	-0.000000	0.000002	-0.724133	-20.373837	-27.384888	9.693738	7.125019	0.000000	0.000000	11.232759	-58.550724	-3.752378
	8.810150	13.333200	-5.385490	-38.697033	-74.837997	54.209049	0.000000	0.000000	0.000000	-20.949942	5.713113	-97.408157	9.057833	16.844790	56.289902	0.266744	2.473237	9.213256	0.604542	-4.976959	-13.842860	0.000000	0.000000	0.000000	-6.390691	-26.987751	5.193956	-9.870722	-17.336514	59.055408	-0.057110	5.850909	-5.562178	-0.664657	5.213918	-14.519709	6.546451	5.308550	4.226921	1.232000	6.813981	7.347200	-2.239180	3.603370	5.956850	-0.783631	3.386150	-3.765300	-9.279350	2.500650	-21.291903	-2.883740	1.644350	-5.681890	-0.783631	-0.000000	0.000000	-30.447641	57.287201	33.908489	9.972527	-16.696589	-1.467048	-0.000001	0.000002	-41.154087	32.512608	-0.837822	-0.533983	-7.125019	0.000000	0.000000	4.636660	28.973038	-1.815782	-0.783631	-0.000000	0.000000	81.527855	-61.790653	58.287987	-16.214502	25.810629	-3.738869	-0.000000	0.000002	-0.292296	-20.273727	-27.591751	9.708717	7.125019	0.000000	0.000000	11.455491	-58.735298	-3.878903
	8.464190	13.216400	-5.381530	-37.465015	-72.388992	51.334019	0.000000	0.000000	0.000000	-20.713709	5.734767	-96.003822	9.721773	17.250399	58.554344	0.077815	-1.071832	5.777925	0.261768	-3.291543	-9.091506	0.000000	0.000000	0.000000	-4.242442	-25.301590	10.351071	-9.528439	-17.136007	57.900299	-0.159541	3.414559	-7.135839	-0.388131	4.000607	-11.078376	5.867849	5.432820	3.749160	1.229780	7.001700	6.880390	-1.853870	3.659869	5.646259	-1.066140	2.829041	-4.125430	-8.402600	1.854690	-21.539303	-2.535850	1.292950	-5.750239	-1.066140	0.000000	0.000000	-31.882473	57.434856	30.138414	9.645427	-16.183035	-1.374472	0.000000	0.000000	-40.521500	32.510201	-0.805354	-0.513236	-7.125019	0.000000	0.000000	4.636757	29.011467	-1.811580	-1.066140	0.000000	0.000000	83.272568	-59.996101	54.424080	-14.919436	24.033758	-3.193063	0.000000	0.000000	0.335786	-20.298649	-27.747572	9.771050	7.125019	0.000000	0.000000	11.515888	-58.896866	-3.944442
	8.123300	13.106300	-5.372030	-36.595013	-69.919006	48.945034	0.000000	0.000000	0.000000	-19.713158	5.461791	-94.672958	10.483520	17.672926	61.092541	-0.033069	-3.228328	1.344882	0.073882	-1.753520	-4.824962	0.000000	0.000000	0.000000	-1.526664	-23.807274	14.679979	-9.327277	-17.013775	57.215210	-0.229899	0.880749	-8.787816	-0.142987	2.436954	-6.714877	5.324110	5.496720	3.216390	1.147300	7.112100	6.372459	-1.622400	3.690320	5.347570	-1.243120	2.258861	-4.492270	-7.525841	1.184320	-21.927700	-2.206790	0.923997	-5.853220	-1.243120	0.000000	-0.000000	-33.350128	57.199326	26.280993	9.368256	-15.745379	-1.298240	0.000001	-0.000002	-40.251598	32.600063	-0.718065	-0.459202	-7.125019	0.000000	0.000000	4.711965	29.113398	-1.829693	-1.243120	0.000000	-0.000000	85.068985	-57.899010	50.199188	-13.680300	22.275826	-2.705735	0.000000	0.000000	1.111006	-20.290518	-28.000643	9.847184	7.125019	0.000000	0.000000	11.668862	-59.148010	-4.068141
	7.793460	13.002800	-5.358780	-35.834000	-67.497986	46.855965	0.000000	0.000000	0.000000	-18.133459	4.773655	-93.600815	11.324144	18.090090	63.829807	0.016986	-3.559168	-3.221748	0.007035	-0.541619	-1.488299	0.000000	0.000000	0.000000	1.495838	-22.564173	17.945747	-9.345418	-17.024933	57.277184	-0.271113	-1.509883	-10.505484	-0.016197	0.821699	-2.258337	4.863359	5.516670	2.689750	0.945340	7.171260	5.805291	-1.563110	3.703680	5.009080	-1.314100	1.680310	-4.723670	-6.671660	0.478600	-22.582100	-1.905150	0.537939	-6.056399	-1.314100	0.000000	0.000000	-34.784763	56.552280	22.617073	9.177793	-15.443326	-1.247040	0.000001	-0.000002	-40.389893	32.735519	-0.615522	-0.395682	-7.125019	0.000000	0.000000	4.823871	29.232882	-1.859693	-1.314100	0.000000	0.000000	86.921837	-55.491901	45.587894	-12.510790	20.566233	-2.278549	0.000000	0.000000	2.047369	-20.538454	-28.386456	10.099314	7.125019	0.000000	0.000000	11.622313	-59.590900	-4.175069
	7.478890	12.907600	-5.345130	-34.825001	-65.229004	44.768005	0.000000	0.000000	0.000000	-16.309881	3.642557	-92.853065	12.208093	18.477236	66.646889	0.161936	-2.471679	-7.147617	0.000014	0.023048	0.063319	0.000000	0.000000	0.000000	4.457211	-21.608690	19.986427	-9.650099	-17.208340	58.312370	-0.299900	-3.521895	-12.253358	-0.015186	-0.795667	2.186746	4.323210	5.502020	2.202820	0.569332	7.192730	5.185461	-1.646470	3.699530	4.606390	-1.258050	1.094540	-4.696110	-5.850251	-0.268561	-23.584002	-1.635090	0.132284	-6.409960	-1.258050	0.000000	0.000000	-36.170494	55.419601	19.246557	9.047956	-15.236820	-1.212692	-0.000001	0.000002	-40.732193	32.810337	-0.588377	-0.379317	-7.125019	0.000000	0.000000	4.883897	29.264147	-1.879339	-1.258050	0.000000	0.000000	88.852562	-52.718933	40.552814	-11.406215	18.908211	-1.905478	0.000000	0.000000	3.193677	-21.194721	-28.916012	10.619457	7.125019	0.000000	0.000000	11.212687	-60.275982	-4.209209
	7.182040	12.822500	-5.334730	-33.522030	-63.240005	42.640987	0.000000	0.000000	0.000000	-14.519141	2.211453	-92.367638	13.088011	18.813709	69.398636	0.300505	-0.765602	-10.112744	0.006342	0.514244	1.413055	0.000000	0.000000	0.000000	7.045527	-20.843824	20.747921	-10.277781	-17.563126	60.412804	-0.344705	-4.922384	-14.002116	-0.114097	-2.177797	5.997279	3.530410	5.469280	1.760850	0.025981	7.193411	4.554630	-1.768320	3.679290	4.158999	-1.146130	0.527347	-4.403881	-5.053390	-1.015200	-24.916601	-1.377500	-0.270850	-6.915310	-1.146130	-0.000000	0.000000	-37.661518	53.755653	16.067516	8.922718	-15.037169	-1.179988	0.000000	0.000000	-40.886593	32.699188	-0.625888	-0.401779	-7.125019	0.000000	0.000000	4.794894	29.221121	-1.849798	-1.146130	-0.000000	0.000000	90.649147	-49.510792	35.275852	-10.356703	17.295593	-1.579347	0.000000	0.000000	4.666185	-22.228712	-29.499218	11.378082	7.125019	0.000000	0.000000	10.407094	-61.113213	-4.110081
